<svg id="Capa_1" enable-background="new 0 0 512 512" height="512" viewBox="0 0 512 512" width="512" xmlns="http://www.w3.org/2000/svg"><path d="m352.31 0h-291.31v512h390v-411.117zm8.69 51.784 39.342 40.216h-39.342zm60 430.216h-330v-452h240v92h90z"/><path d="m121 452h90v-90h-90zm30-60h30v30h-30z"/><path d="m121 332h90v-90h-90zm30-60h30v30h-30z"/><path d="m121 212h90v-90h-90zm30-60h30v30h-30z"/><path d="m241 122h60v30h-60z"/><path d="m241 182h150v30h-150z"/><path d="m121 62h180v30h-180z"/><path d="m241 242h60v30h-60z"/><path d="m241 302h150v30h-150z"/><path d="m241 362h60v30h-60z"/><path d="m241 422h150v30h-150z"/></svg>